<svg version="1.1" id="Layer_1" xmlns="http://www.w3.org/2000/svg" xmlns:xlink="http://www.w3.org/1999/xlink" x="0px" y="0px"
	 width="100%" viewBox="0 0 1000 1000" enable-background="new 0 0 1000 1000" xml:space="preserve">
<path fill="#000000" opacity="1.000000" stroke="none" 
	d="
M633.000000,1001.000000 
	C422.000000,1001.000000 211.500000,1001.000000 1.000000,1001.000000 
	C1.000000,667.666687 1.000000,334.333344 1.000000,1.000000 
	C334.333344,1.000000 667.666687,1.000000 1001.000000,1.000000 
	C1001.000000,334.333344 1001.000000,667.666687 1001.000000,1001.000000 
	C878.500000,1001.000000 756.000000,1001.000000 633.000000,1001.000000 
M571.178406,423.386047 
	C561.629272,415.939941 554.817017,406.425720 549.979309,395.404816 
	C544.217346,382.278442 541.476318,368.426788 540.525085,354.234894 
	C538.898376,329.965332 539.575073,305.866791 548.861267,282.899078 
	C558.562317,258.905487 575.955383,244.151566 601.959656,240.676636 
	C626.849060,237.350677 649.601501,242.874771 669.738770,258.210785 
	C675.286865,262.436127 676.463928,261.965546 677.941833,255.012848 
	C679.187439,249.153061 680.254211,243.240570 681.843933,237.473724 
	C682.924561,233.553513 681.776245,231.612885 678.277283,229.634094 
	C654.463257,216.166473 628.811279,212.461502 602.007324,214.983917 
	C564.218201,218.540131 535.737976,236.612228 521.038269,271.945068 
	C502.958069,315.403412 503.171509,360.075623 519.378845,404.099121 
	C528.334106,428.424103 545.372925,446.486847 570.163208,455.432129 
	C607.070862,468.749756 642.583374,463.248383 676.679504,445.262421 
	C677.742798,444.701538 678.715210,443.052460 678.857117,441.810944 
	C679.707886,434.365509 680.404419,426.897552 680.901184,419.420471 
	C681.005493,417.851807 680.376099,415.093414 679.527710,414.853577 
	C678.027588,414.429443 675.772583,415.063354 674.402832,416.047058 
	C664.304321,423.299744 653.481201,429.135101 641.513062,432.509674 
	C617.090698,439.395905 593.448975,439.163544 571.178406,423.386047 
M370.359070,368.497803 
	C370.444916,383.495880 370.374359,398.496857 370.654694,413.491302 
	C371.038422,434.016815 363.294800,450.462677 346.492371,462.354553 
	C339.708893,467.155518 332.714203,471.702515 325.533813,475.880737 
	C321.538879,478.205383 321.381500,480.483917 323.785767,483.858246 
	C326.588196,487.791351 329.385162,491.736847 331.970367,495.812775 
	C333.404083,498.073273 334.788666,498.735931 337.202850,497.225403 
	C348.330902,490.262726 360.032074,484.088776 370.555573,476.315826 
	C387.697418,463.654510 396.869415,445.990601 398.039429,424.695740 
	C398.695984,412.745850 398.031067,400.727661 398.115051,388.741302 
	C398.502747,333.414307 398.944855,278.087646 399.364563,222.760864 
	C399.380646,220.639832 399.366608,218.518585 399.366608,216.343781 
	C372.990356,216.343781 347.215271,216.343781 321.140259,216.343781 
	C320.652954,222.204224 320.229614,227.825623 319.707764,233.437866 
	C319.051514,240.495071 319.610291,241.146545 326.901917,241.125443 
	C336.567566,241.097473 346.233093,241.029709 355.898743,240.991592 
	C360.164459,240.974762 364.430328,240.988754 369.039642,240.988754 
	C369.478577,283.563385 369.911285,325.530670 370.359070,368.497803 
M452.222809,627.724731 
	C452.592804,625.976501 452.962799,624.228271 453.451019,621.921387 
	C451.125153,621.921387 449.324158,621.921387 447.523163,621.921387 
	C435.045319,621.921265 422.566650,621.989563 410.090576,621.841187 
	C408.381744,621.820801 406.685760,620.721252 404.235291,619.857483 
	C394.750305,635.059814 389.873596,652.830322 388.658569,671.798828 
	C408.140747,671.798828 427.552399,671.798828 446.554382,671.798828 
	C448.416962,657.202209 450.242279,642.897461 452.222809,627.724731 
M446.087799,682.176270 
	C426.886871,682.176270 407.685944,682.176270 388.677856,682.176270 
	C390.021057,701.322754 394.856903,719.000366 404.459045,734.061768 
	C406.618622,733.269958 407.991852,732.354431 409.383575,732.325500 
	C416.535858,732.176758 423.692841,732.255554 430.848206,732.255310 
	C438.130798,732.255066 445.413422,732.255310 451.829834,732.255310 
	C450.120544,715.425720 448.461945,699.095581 446.087799,682.176270 
M501.008392,631.543457 
	C501.008392,628.276611 501.008392,625.009705 501.008392,621.328613 
	C489.038025,621.328613 477.735382,621.214478 466.442322,621.491821 
	C465.209869,621.522095 463.226837,623.656372 462.960144,625.072388 
	C461.145111,634.709229 459.382050,644.378540 458.250549,654.112732 
	C457.590546,659.790894 458.130371,665.608521 458.130371,671.329285 
	C472.504517,671.329285 486.594696,671.329285 501.008392,671.329285 
	C501.008392,658.162720 501.008392,645.347595 501.008392,631.543457 
M473.508362,681.663147 
	C468.382782,681.663147 463.257172,681.663147 457.746948,681.663147 
	C457.667358,698.340332 459.897064,714.234619 463.393768,729.975464 
	C463.565125,730.746826 464.997406,731.768860 465.851807,731.777649 
	C477.441071,731.897156 489.031952,731.857849 500.707153,731.857849 
	C500.707153,714.836975 500.707153,698.455627 500.707153,681.663208 
	C491.780182,681.663208 483.142761,681.663208 473.508362,681.663147 
M411.211304,611.042969 
	C422.694000,611.114929 434.176636,611.210938 445.659454,611.251404 
	C455.612152,611.286560 455.621185,611.262146 459.241119,601.763306 
	C464.295166,588.501221 470.927551,576.234741 481.556335,566.172485 
	C473.491882,568.113525 465.555237,570.064758 458.089355,573.153809 
	C438.798187,581.135620 422.559113,593.207153 411.211304,611.042969 
M455.030060,779.387085 
	C463.481598,783.049927 472.105133,786.085632 482.371368,787.311707 
	C469.222717,775.791931 462.410278,761.710815 457.510468,746.560730 
	C456.481171,743.378296 455.216461,742.073975 451.668030,742.143799 
	C439.204224,742.389221 426.732605,742.228027 414.264038,742.257141 
	C413.058838,742.259949 411.854187,742.511536 409.999268,742.721069 
	C422.029205,759.009216 436.592041,770.975708 455.030060,779.387085 
M494.996338,570.393433 
	C478.278351,578.792603 472.915924,594.873535 466.634613,610.885864 
	C478.622070,610.885864 489.683685,610.885864 500.568787,610.885864 
	C500.568787,596.821594 500.568787,583.131653 500.568787,569.184326 
	C498.641907,569.559082 497.182648,569.842896 494.996338,570.393433 
M477.285370,429.079010 
	C472.295776,428.399994 467.195374,426.726715 462.341736,427.267609 
	C454.436768,428.148621 449.708862,435.461365 449.800079,444.533569 
	C449.898560,454.331177 454.029938,459.842926 462.538635,461.528473 
	C470.920746,463.188995 478.692261,459.858276 482.173950,453.113159 
	C486.253510,445.209839 484.503387,435.542328 477.285370,429.079010 
M501.008392,761.500549 
	C501.008392,755.236633 501.008392,748.972717 501.008392,742.595825 
	C489.347504,742.595825 478.322296,742.595825 466.696136,742.595825 
	C471.299683,756.084106 476.597351,768.530518 486.875854,778.120422 
	C490.650787,781.642456 494.973022,784.412842 501.008392,784.047241 
	C501.008392,776.746094 501.008392,769.623108 501.008392,761.500549 
M556.398315,602.732178 
	C556.026978,597.488281 556.366150,592.066528 555.109375,587.044250 
	C553.440063,580.373230 548.464905,577.352966 541.678833,577.335754 
	C535.073181,577.318970 530.128235,580.132874 528.380493,586.518677 
	C527.013489,591.513611 526.530945,597.015625 526.968506,602.181091 
	C527.740112,611.290527 533.225342,616.321899 541.233521,616.625427 
	C549.177246,616.926575 553.959778,612.754395 556.398315,602.732178 
M587.521179,614.142883 
	C594.176758,607.968262 596.247925,596.712158 592.549622,586.814331 
	C590.227844,580.600586 585.890991,577.500977 579.282532,577.332336 
	C572.702148,577.164429 567.706299,579.924805 565.828247,586.264221 
	C564.400330,591.083923 563.760864,596.413086 564.099121,601.425964 
	C564.957397,614.146423 575.149963,619.787109 587.521179,614.142883 
M590.767944,742.847595 
	C587.032593,737.586426 581.737183,736.387634 575.778442,737.326477 
	C569.822510,738.264893 566.550476,742.238281 564.985107,747.757568 
	C563.075867,754.489502 563.059265,761.225464 565.733276,767.776917 
	C568.135071,773.661377 572.277161,776.255493 578.463745,776.262817 
	C584.894226,776.270447 589.847107,773.931580 592.175659,767.629517 
	C595.187256,759.479004 595.088379,751.388977 590.767944,742.847595 
M537.005005,659.196533 
	C527.107300,656.457031 520.322937,660.041138 518.650146,670.032532 
	C517.715698,675.614014 518.057190,681.639404 519.039978,687.251831 
	C520.203613,693.897461 525.086975,697.252930 531.406250,697.322327 
	C537.806702,697.392639 542.925720,694.225830 543.984558,687.602417 
	C545.007263,681.205200 544.889954,674.415283 543.921692,668.001953 
	C543.459961,664.943726 539.863159,662.358948 537.005005,659.196533 
M596.002563,687.266296 
	C595.983398,680.857666 596.657532,674.348694 595.748291,668.068970 
	C594.854614,661.897095 589.638733,658.352905 583.689026,658.132324 
	C577.648254,657.908447 572.542664,660.966431 571.122986,667.284851 
	C569.879578,672.819092 569.696716,678.753052 570.058716,684.445984 
	C570.516113,691.639832 574.871704,696.224792 580.657166,697.116821 
	C587.922363,698.237122 592.381042,695.568237 596.002563,687.266296 
M504.351135,578.520752 
	C504.212769,580.106750 504.074371,581.692749 503.922058,583.438354 
	C506.631256,583.699341 508.852875,583.913330 511.606079,584.178589 
	C511.606079,594.853088 511.606079,605.106323 511.606079,615.410889 
	C513.935608,615.410889 515.666748,615.410889 517.629395,615.410889 
	C517.629395,602.794617 517.629395,590.548157 517.629395,578.140198 
	C513.237793,578.140198 509.103088,578.140198 504.351135,578.520752 
M534.483948,771.130981 
	C534.483948,760.191162 534.483948,749.251343 534.483948,738.282227 
	C529.569946,738.282227 525.320496,738.282227 520.668884,738.282227 
	C520.783691,740.297668 520.880615,741.999207 520.973083,743.623352 
	C523.648010,743.852295 525.731995,744.030701 528.234863,744.244934 
	C528.234863,754.844727 528.234863,765.104858 528.234863,775.536743 
	C531.573120,775.907654 534.898682,777.238892 534.483948,771.130981 
M555.395447,774.767090 
	C555.395447,762.585510 555.395447,750.403931 555.395447,738.300903 
	C550.460815,738.300903 546.231750,738.300903 541.633667,738.300903 
	C541.777588,740.359619 541.895935,742.052856 542.007507,743.648743 
	C544.685913,743.890991 546.759216,744.078491 549.245239,744.303284 
	C549.245239,754.912292 549.245239,765.148621 549.245239,775.907532 
	C551.471863,775.758972 553.215332,775.642639 555.395447,774.767090 
M611.025146,738.029175 
	C607.276245,738.029175 603.527405,738.029175 599.420471,738.029175 
	C599.570923,740.389038 599.672058,741.976318 599.780090,743.670410 
	C602.304016,743.834167 604.418152,743.971375 607.096069,744.145203 
	C607.096069,754.695496 607.096069,765.098083 607.096069,775.585571 
	C609.419861,775.585571 611.153137,775.585571 613.231079,775.585571 
	C613.231079,763.485718 613.250366,751.685852 613.175293,739.886536 
	C613.171387,739.282532 612.357178,738.683716 611.025146,738.029175 
M613.308044,580.974365 
	C612.586182,579.956726 611.932495,578.127441 611.130859,578.060120 
	C607.399292,577.747131 603.626770,577.921509 600.058044,577.921509 
	C597.628845,585.733093 603.754456,582.914551 607.066467,584.286682 
	C607.066467,594.470581 607.066467,604.849365 607.066467,615.469421 
	C609.338379,615.469421 611.055908,615.469421 613.315369,615.469421 
	C613.315369,604.085938 613.315369,592.991638 613.308044,580.974365 
M608.609009,696.704956 
	C610.042786,696.773987 611.476624,696.843018 612.942810,696.913635 
	C612.942810,684.091919 612.942810,671.723511 612.942810,659.359009 
	C608.982849,659.359009 605.397888,659.359009 601.882935,659.359009 
	C599.501221,666.090759 605.581055,663.447388 608.163147,665.306213 
	C608.163147,675.369812 608.163147,685.648499 608.609009,696.704956 
M562.134827,687.453064 
	C562.134827,678.073303 562.134827,668.693542 562.134827,659.384155 
	C557.696106,659.384155 554.107422,659.384155 550.188782,659.384155 
	C550.277832,661.116028 550.350098,662.520691 550.426025,663.996155 
	C552.723450,664.271423 554.664673,664.504028 557.074036,664.792664 
	C557.074036,675.512329 557.074036,686.074890 557.074036,696.946350 
	C558.977234,696.841553 560.367371,696.765015 562.134827,696.667664 
	C562.134827,693.694031 562.134827,691.064941 562.134827,687.453064 
z"/>
<path fill="#F90A0A" opacity="1.000000" stroke="none" 
	d="
M571.459351,423.608765 
	C593.448975,439.163544 617.090698,439.395905 641.513062,432.509674 
	C653.481201,429.135101 664.304321,423.299744 674.402832,416.047058 
	C675.772583,415.063354 678.027588,414.429443 679.527710,414.853577 
	C680.376099,415.093414 681.005493,417.851807 680.901184,419.420471 
	C680.404419,426.897552 679.707886,434.365509 678.857117,441.810944 
	C678.715210,443.052460 677.742798,444.701538 676.679504,445.262421 
	C642.583374,463.248383 607.070862,468.749756 570.163208,455.432129 
	C545.372925,446.486847 528.334106,428.424103 519.378845,404.099121 
	C503.171509,360.075623 502.958069,315.403412 521.038269,271.945068 
	C535.737976,236.612228 564.218201,218.540131 602.007324,214.983917 
	C628.811279,212.461502 654.463257,216.166473 678.277283,229.634094 
	C681.776245,231.612885 682.924561,233.553513 681.843933,237.473724 
	C680.254211,243.240570 679.187439,249.153061 677.941833,255.012848 
	C676.463928,261.965546 675.286865,262.436127 669.738770,258.210785 
	C649.601501,242.874771 626.849060,237.350677 601.959656,240.676636 
	C575.955383,244.151566 558.562317,258.905487 548.861267,282.899078 
	C539.575073,305.866791 538.898376,329.965332 540.525085,354.234894 
	C541.476318,368.426788 544.217346,382.278442 549.979309,395.404816 
	C554.817017,406.425720 561.629272,415.939941 571.459351,423.608765 
z"/>
<path fill="#F90A0A" opacity="1.000000" stroke="none" 
	d="
M370.351501,367.997864 
	C369.911285,325.530670 369.478577,283.563385 369.039642,240.988754 
	C364.430328,240.988754 360.164459,240.974762 355.898743,240.991592 
	C346.233093,241.029709 336.567566,241.097473 326.901917,241.125443 
	C319.610291,241.146545 319.051514,240.495071 319.707764,233.437866 
	C320.229614,227.825623 320.652954,222.204224 321.140259,216.343781 
	C347.215271,216.343781 372.990356,216.343781 399.366608,216.343781 
	C399.366608,218.518585 399.380646,220.639832 399.364563,222.760864 
	C398.944855,278.087646 398.502747,333.414307 398.115051,388.741302 
	C398.031067,400.727661 398.695984,412.745850 398.039429,424.695740 
	C396.869415,445.990601 387.697418,463.654510 370.555573,476.315826 
	C360.032074,484.088776 348.330902,490.262726 337.202850,497.225403 
	C334.788666,498.735931 333.404083,498.073273 331.970367,495.812775 
	C329.385162,491.736847 326.588196,487.791351 323.785767,483.858246 
	C321.381500,480.483917 321.538879,478.205383 325.533813,475.880737 
	C332.714203,471.702515 339.708893,467.155518 346.492371,462.354553 
	C363.294800,450.462677 371.038422,434.016815 370.654694,413.491302 
	C370.374359,398.496857 370.444916,383.495880 370.351501,367.997864 
z"/>
<path fill="#F90A0A" opacity="1.000000" stroke="none" 
	d="
M452.145203,628.158752 
	C450.242279,642.897461 448.416962,657.202209 446.554382,671.798828 
	C427.552399,671.798828 408.140747,671.798828 388.658569,671.798828 
	C389.873596,652.830322 394.750305,635.059814 404.235291,619.857483 
	C406.685760,620.721252 408.381744,621.820801 410.090576,621.841187 
	C422.566650,621.989563 435.045319,621.921265 447.523163,621.921387 
	C449.324158,621.921387 451.125153,621.921387 453.451019,621.921387 
	C452.962799,624.228271 452.592804,625.976501 452.145203,628.158752 
z"/>
<path fill="#F90A0A" opacity="1.000000" stroke="none" 
	d="
M446.445557,682.470825 
	C448.461945,699.095581 450.120544,715.425720 451.829834,732.255310 
	C445.413422,732.255310 438.130798,732.255066 430.848206,732.255310 
	C423.692841,732.255554 416.535858,732.176758 409.383575,732.325500 
	C407.991852,732.354431 406.618622,733.269958 404.459045,734.061768 
	C394.856903,719.000366 390.021057,701.322754 388.677856,682.176270 
	C407.685944,682.176270 426.886871,682.176270 446.445557,682.470825 
z"/>
<path fill="#F70A0A" opacity="1.000000" stroke="none" 
	d="
M501.008392,632.037964 
	C501.008392,645.347595 501.008392,658.162720 501.008392,671.329285 
	C486.594696,671.329285 472.504517,671.329285 458.130371,671.329285 
	C458.130371,665.608521 457.590546,659.790894 458.250549,654.112732 
	C459.382050,644.378540 461.145111,634.709229 462.960144,625.072388 
	C463.226837,623.656372 465.209869,621.522095 466.442322,621.491821 
	C477.735382,621.214478 489.038025,621.328613 501.008392,621.328613 
	C501.008392,625.009705 501.008392,628.276611 501.008392,632.037964 
z"/>
<path fill="#F90A0A" opacity="1.000000" stroke="none" 
	d="
M474.006836,681.663208 
	C483.142761,681.663208 491.780182,681.663208 500.707153,681.663208 
	C500.707153,698.455627 500.707153,714.836975 500.707153,731.857849 
	C489.031952,731.857849 477.441071,731.897156 465.851807,731.777649 
	C464.997406,731.768860 463.565125,730.746826 463.393768,729.975464 
	C459.897064,714.234619 457.667358,698.340332 457.746948,681.663147 
	C463.257172,681.663147 468.382782,681.663147 474.006836,681.663208 
z"/>
<path fill="#F90A0A" opacity="1.000000" stroke="none" 
	d="
M410.927643,610.839722 
	C422.559113,593.207153 438.798187,581.135620 458.089355,573.153809 
	C465.555237,570.064758 473.491882,568.113525 481.556335,566.172485 
	C470.927551,576.234741 464.295166,588.501221 459.241119,601.763306 
	C455.621185,611.262146 455.612152,611.286560 445.659454,611.251404 
	C434.176636,611.210938 422.694000,611.114929 410.927643,610.839722 
z"/>
<path fill="#F70A0A" opacity="1.000000" stroke="none" 
	d="
M454.686707,779.230469 
	C436.592041,770.975708 422.029205,759.009216 409.999268,742.721069 
	C411.854187,742.511536 413.058838,742.259949 414.264038,742.257141 
	C426.732605,742.228027 439.204224,742.389221 451.668030,742.143799 
	C455.216461,742.073975 456.481171,743.378296 457.510468,746.560730 
	C462.410278,761.710815 469.222717,775.791931 482.371368,787.311707 
	C472.105133,786.085632 463.481598,783.049927 454.686707,779.230469 
z"/>
<path fill="#F90A0A" opacity="1.000000" stroke="none" 
	d="
M495.359863,570.260071 
	C497.182648,569.842896 498.641907,569.559082 500.568787,569.184326 
	C500.568787,583.131653 500.568787,596.821594 500.568787,610.885864 
	C489.683685,610.885864 478.622070,610.885864 466.634613,610.885864 
	C472.915924,594.873535 478.278351,578.792603 495.359863,570.260071 
z"/>
<path fill="#F70A0A" opacity="1.000000" stroke="none" 
	d="
M477.591583,429.285339 
	C484.503387,435.542328 486.253510,445.209839 482.173950,453.113159 
	C478.692261,459.858276 470.920746,463.188995 462.538635,461.528473 
	C454.029938,459.842926 449.898560,454.331177 449.800079,444.533569 
	C449.708862,435.461365 454.436768,428.148621 462.341736,427.267609 
	C467.195374,426.726715 472.295776,428.399994 477.591583,429.285339 
z"/>
<path fill="#F70A0A" opacity="1.000000" stroke="none" 
	d="
M501.008392,762.000366 
	C501.008392,769.623108 501.008392,776.746094 501.008392,784.047241 
	C494.973022,784.412842 490.650787,781.642456 486.875854,778.120422 
	C476.597351,768.530518 471.299683,756.084106 466.696136,742.595825 
	C478.322296,742.595825 489.347504,742.595825 501.008392,742.595825 
	C501.008392,748.972717 501.008392,755.236633 501.008392,762.000366 
z"/>
<path fill="#F10A0A" opacity="1.000000" stroke="none" 
	d="
M556.304138,603.146301 
	C553.959778,612.754395 549.177246,616.926575 541.233521,616.625427 
	C533.225342,616.321899 527.740112,611.290527 526.968506,602.181091 
	C526.530945,597.015625 527.013489,591.513611 528.380493,586.518677 
	C530.128235,580.132874 535.073181,577.318970 541.678833,577.335754 
	C548.464905,577.352966 553.440063,580.373230 555.109375,587.044250 
	C556.366150,592.066528 556.026978,597.488281 556.304138,603.146301 
M533.146179,591.244446 
	C533.486084,595.818115 533.303162,600.513184 534.328125,604.927795 
	C535.178284,608.589661 538.408691,610.338257 542.399902,610.218567 
	C546.169189,610.105591 548.687927,608.285095 550.009216,604.863831 
	C552.320862,598.878174 552.303162,592.815918 549.842712,586.911499 
	C547.683594,581.730164 542.423889,580.158691 538.031311,583.660156 
	C535.978699,585.296387 534.885254,588.135986 533.146179,591.244446 
z"/>
<path fill="#F20A0A" opacity="1.000000" stroke="none" 
	d="
M587.218140,614.359253 
	C575.149963,619.787109 564.957397,614.146423 564.099121,601.425964 
	C563.760864,596.413086 564.400330,591.083923 565.828247,586.264221 
	C567.706299,579.924805 572.702148,577.164429 579.282532,577.332336 
	C585.890991,577.500977 590.227844,580.600586 592.549622,586.814331 
	C596.247925,596.712158 594.176758,607.968262 587.218140,614.359253 
M588.894531,593.864624 
	C588.575195,592.237793 588.372375,590.577209 587.913086,588.990906 
	C586.835022,585.268250 584.971558,582.118835 580.593445,581.966064 
	C576.325012,581.817139 573.264038,584.066345 571.645142,587.897339 
	C569.213867,593.650879 569.176941,599.525024 571.693298,605.304565 
	C573.180969,608.721252 575.882263,610.283813 579.602173,610.221741 
	C583.347412,610.159180 586.172546,608.482666 587.199707,604.937561 
	C588.154480,601.642517 588.383179,598.137146 588.894531,593.864624 
z"/>
<path fill="#F20A0A" opacity="1.000000" stroke="none" 
	d="
M590.950195,743.175354 
	C595.088379,751.388977 595.187256,759.479004 592.175659,767.629517 
	C589.847107,773.931580 584.894226,776.270447 578.463745,776.262817 
	C572.277161,776.255493 568.135071,773.661377 565.733276,767.776917 
	C563.059265,761.225464 563.075867,754.489502 564.985107,747.757568 
	C566.550476,742.238281 569.822510,738.264893 575.778442,737.326477 
	C581.737183,736.387634 587.032593,737.586426 590.950195,743.175354 
M571.480591,748.272339 
	C571.326843,753.489380 570.608032,758.771240 571.197510,763.902954 
	C571.672974,768.043152 574.984436,770.425964 579.424072,770.430420 
	C583.879883,770.434937 586.985718,768.015503 587.669739,763.877625 
	C588.412292,759.385620 588.432739,754.673584 588.028809,750.123108 
	C587.673462,746.121216 585.538025,742.647888 581.045593,742.139465 
	C576.840637,741.663696 573.681702,743.676147 571.480591,748.272339 
z"/>
<path fill="#F10A0A" opacity="1.000000" stroke="none" 
	d="
M537.345703,659.378113 
	C539.863159,662.358948 543.459961,664.943726 543.921692,668.001953 
	C544.889954,674.415283 545.007263,681.205200 543.984558,687.602417 
	C542.925720,694.225830 537.806702,697.392639 531.406250,697.322327 
	C525.086975,697.252930 520.203613,693.897461 519.039978,687.251831 
	C518.057190,681.639404 517.715698,675.614014 518.650146,670.032532 
	C520.322937,660.041138 527.107300,656.457031 537.345703,659.378113 
M536.599670,664.822571 
	C531.644104,661.439392 526.470093,662.651611 525.102600,668.701782 
	C523.869629,674.156738 524.322388,680.146484 524.928345,685.804321 
	C525.278442,689.073303 528.346619,691.825684 531.799744,690.807983 
	C534.396912,690.042480 537.626038,687.637024 538.415527,685.248291 
	C540.583130,678.689697 540.704346,671.826416 536.599670,664.822571 
z"/>
<path fill="#F10A0A" opacity="1.000000" stroke="none" 
	d="
M595.904785,687.657471 
	C592.381042,695.568237 587.922363,698.237122 580.657166,697.116821 
	C574.871704,696.224792 570.516113,691.639832 570.058716,684.445984 
	C569.696716,678.753052 569.879578,672.819092 571.122986,667.284851 
	C572.542664,660.966431 577.648254,657.908447 583.689026,658.132324 
	C589.638733,658.352905 594.854614,661.897095 595.748291,668.068970 
	C596.657532,674.348694 595.983398,680.857666 595.904785,687.657471 
M590.237000,685.272400 
	C590.345825,679.999817 590.851135,674.694702 590.421082,669.466431 
	C590.143982,666.097534 587.966370,662.290466 584.172363,663.043030 
	C581.292664,663.614136 577.386841,666.388916 576.679565,668.942627 
	C575.358826,673.711243 575.311035,679.157104 576.167603,684.071228 
	C576.617065,686.649780 579.703979,689.690979 582.316956,690.743896 
	C585.831909,692.160278 588.494751,689.428345 590.237000,685.272400 
z"/>
<path fill="#E20909" opacity="1.000000" stroke="none" 
	d="
M504.659760,578.330444 
	C509.103088,578.140198 513.237793,578.140198 517.629395,578.140198 
	C517.629395,590.548157 517.629395,602.794617 517.629395,615.410889 
	C515.666748,615.410889 513.935608,615.410889 511.606079,615.410889 
	C511.606079,605.106323 511.606079,594.853088 511.606079,584.178589 
	C508.852875,583.913330 506.631256,583.699341 503.922058,583.438354 
	C504.074371,581.692749 504.212769,580.106750 504.659760,578.330444 
z"/>
<path fill="#F10A0A" opacity="1.000000" stroke="none" 
	d="
M534.482666,771.584229 
	C534.898682,777.238892 531.573120,775.907654 528.234863,775.536743 
	C528.234863,765.104858 528.234863,754.844727 528.234863,744.244934 
	C525.731995,744.030701 523.648010,743.852295 520.973083,743.623352 
	C520.880615,741.999207 520.783691,740.297668 520.668884,738.282227 
	C525.320496,738.282227 529.569946,738.282227 534.483948,738.282227 
	C534.483948,749.251343 534.483948,760.191162 534.482666,771.584229 
z"/>
<path fill="#E20909" opacity="1.000000" stroke="none" 
	d="
M555.177124,775.146729 
	C553.215332,775.642639 551.471863,775.758972 549.245239,775.907532 
	C549.245239,765.148621 549.245239,754.912292 549.245239,744.303284 
	C546.759216,744.078491 544.685913,743.890991 542.007507,743.648743 
	C541.895935,742.052856 541.777588,740.359619 541.633667,738.300903 
	C546.231750,738.300903 550.460815,738.300903 555.395447,738.300903 
	C555.395447,750.403931 555.395447,762.585510 555.177124,775.146729 
z"/>
<path fill="#F20A0A" opacity="1.000000" stroke="none" 
	d="
M611.472717,738.055786 
	C612.357178,738.683716 613.171387,739.282532 613.175293,739.886536 
	C613.250366,751.685852 613.231079,763.485718 613.231079,775.585571 
	C611.153137,775.585571 609.419861,775.585571 607.096069,775.585571 
	C607.096069,765.098083 607.096069,754.695496 607.096069,744.145203 
	C604.418152,743.971375 602.304016,743.834167 599.780090,743.670410 
	C599.672058,741.976318 599.570923,740.389038 599.420471,738.029175 
	C603.527405,738.029175 607.276245,738.029175 611.472717,738.055786 
z"/>
<path fill="#F10A0A" opacity="1.000000" stroke="none" 
	d="
M613.311707,581.435852 
	C613.315369,592.991638 613.315369,604.085938 613.315369,615.469421 
	C611.055908,615.469421 609.338379,615.469421 607.066467,615.469421 
	C607.066467,604.849365 607.066467,594.470581 607.066467,584.286682 
	C603.754456,582.914551 597.628845,585.733093 600.058044,577.921509 
	C603.626770,577.921509 607.399292,577.747131 611.130859,578.060120 
	C611.932495,578.127441 612.586182,579.956726 613.311707,581.435852 
z"/>
<path fill="#F20A0A" opacity="1.000000" stroke="none" 
	d="
M608.386108,696.316040 
	C608.163147,685.648499 608.163147,675.369812 608.163147,665.306213 
	C605.581055,663.447388 599.501221,666.090759 601.882935,659.359009 
	C605.397888,659.359009 608.982849,659.359009 612.942810,659.359009 
	C612.942810,671.723511 612.942810,684.091919 612.942810,696.913635 
	C611.476624,696.843018 610.042786,696.773987 608.386108,696.316040 
z"/>
<path fill="#F70A0A" opacity="1.000000" stroke="none" 
	d="
M562.134827,687.944458 
	C562.134827,691.064941 562.134827,693.694031 562.134827,696.667664 
	C560.367371,696.765015 558.977234,696.841553 557.074036,696.946350 
	C557.074036,686.074890 557.074036,675.512329 557.074036,664.792664 
	C554.664673,664.504028 552.723450,664.271423 550.426025,663.996155 
	C550.350098,662.520691 550.277832,661.116028 550.188782,659.384155 
	C554.107422,659.384155 557.696106,659.384155 562.134827,659.384155 
	C562.134827,668.693542 562.134827,678.073303 562.134827,687.944458 
z"/>
<path fill="#050000" opacity="1.000000" stroke="none" 
	d="
M533.251587,590.837280 
	C534.885254,588.135986 535.978699,585.296387 538.031311,583.660156 
	C542.423889,580.158691 547.683594,581.730164 549.842712,586.911499 
	C552.303162,592.815918 552.320862,598.878174 550.009216,604.863831 
	C548.687927,608.285095 546.169189,610.105591 542.399902,610.218567 
	C538.408691,610.338257 535.178284,608.589661 534.328125,604.927795 
	C533.303162,600.513184 533.486084,595.818115 533.251587,590.837280 
z"/>
<path fill="#050000" opacity="1.000000" stroke="none" 
	d="
M588.913025,594.294495 
	C588.383179,598.137146 588.154480,601.642517 587.199707,604.937561 
	C586.172546,608.482666 583.347412,610.159180 579.602173,610.221741 
	C575.882263,610.283813 573.180969,608.721252 571.693298,605.304565 
	C569.176941,599.525024 569.213867,593.650879 571.645142,587.897339 
	C573.264038,584.066345 576.325012,581.817139 580.593445,581.966064 
	C584.971558,582.118835 586.835022,585.268250 587.913086,588.990906 
	C588.372375,590.577209 588.575195,592.237793 588.913025,594.294495 
z"/>
<path fill="#050000" opacity="1.000000" stroke="none" 
	d="
M571.665222,747.925049 
	C573.681702,743.676147 576.840637,741.663696 581.045593,742.139465 
	C585.538025,742.647888 587.673462,746.121216 588.028809,750.123108 
	C588.432739,754.673584 588.412292,759.385620 587.669739,763.877625 
	C586.985718,768.015503 583.879883,770.434937 579.424072,770.430420 
	C574.984436,770.425964 571.672974,768.043152 571.197510,763.902954 
	C570.608032,758.771240 571.326843,753.489380 571.665222,747.925049 
z"/>
<path fill="#050000" opacity="1.000000" stroke="none" 
	d="
M536.848511,665.130554 
	C540.704346,671.826416 540.583130,678.689697 538.415527,685.248291 
	C537.626038,687.637024 534.396912,690.042480 531.799744,690.807983 
	C528.346619,691.825684 525.278442,689.073303 524.928345,685.804321 
	C524.322388,680.146484 523.869629,674.156738 525.102600,668.701782 
	C526.470093,662.651611 531.644104,661.439392 536.848511,665.130554 
z"/>
<path fill="#050000" opacity="1.000000" stroke="none" 
	d="
M590.109985,685.662720 
	C588.494751,689.428345 585.831909,692.160278 582.316956,690.743896 
	C579.703979,689.690979 576.617065,686.649780 576.167603,684.071228 
	C575.311035,679.157104 575.358826,673.711243 576.679565,668.942627 
	C577.386841,666.388916 581.292664,663.614136 584.172363,663.043030 
	C587.966370,662.290466 590.143982,666.097534 590.421082,669.466431 
	C590.851135,674.694702 590.345825,679.999817 590.109985,685.662720 
z"/>
</svg>